<svg width="121" height="26" viewBox="0 0 121 26" fill="none" xmlns="http://www.w3.org/2000/svg">
<path d="M2.75361 0.679998L3.61761 1.32C3.38294 1.61867 3.13761 2.04533 2.88161 2.6C2.62561 3.15467 2.42294 3.76267 2.27361 4.424C2.12428 5.08533 2.08161 5.74667 2.14561 6.408C2.29494 6.344 2.43361 6.30133 2.56161 6.28C2.68961 6.23733 2.81761 6.216 2.94561 6.216C3.37228 6.216 3.72428 6.36533 4.00161 6.664C4.27894 6.96267 4.41761 7.336 4.41761 7.784C4.41761 8.38133 4.24694 8.84 3.90561 9.16C3.56428 9.48 3.14828 9.64 2.65761 9.64C1.93228 9.64 1.36694 9.36267 0.961609 8.808C0.577609 8.232 0.385609 7.53867 0.385609 6.728C0.385609 6.17333 0.481609 5.52267 0.673609 4.776C0.886942 4.008 1.16428 3.25067 1.50561 2.504C1.86828 1.75733 2.28428 1.14933 2.75361 0.679998ZM19.4361 23.944C20.2468 23.9013 20.8014 23.72 21.1001 23.4C21.3988 23.0587 21.5588 22.6 21.5801 22.024C21.6228 21.4267 21.6441 20.7547 21.6441 20.008V6.184C21.6441 5.75733 21.6548 5.352 21.6761 4.968C21.6974 4.56267 21.7188 4.2 21.7401 3.88C21.3561 3.90133 20.9721 3.92267 20.5881 3.944C20.2041 3.96533 19.8201 3.98667 19.4361 4.008V2.6L26.9881 2.568C28.9081 2.568 30.6681 2.792 32.2681 3.24C33.8681 3.688 35.2441 4.38133 36.3961 5.32C37.5694 6.23733 38.4654 7.41067 39.0841 8.84C39.7241 10.248 40.0441 11.912 40.0441 13.832C40.0441 15.304 39.7881 16.712 39.2761 18.056C38.7641 19.4 37.9961 20.5947 36.9721 21.64C35.9481 22.664 34.6681 23.4853 33.1321 24.104C31.6174 24.7013 29.8574 25 27.8521 25H19.4361V23.944ZM24.4281 21.224C24.4281 21.8 24.4174 22.2907 24.3961 22.696C24.3961 23.1013 24.3748 23.4427 24.3321 23.72C24.9081 23.7413 25.4308 23.7627 25.9001 23.784C26.3908 23.784 26.7961 23.784 27.1161 23.784C27.4574 23.784 27.6708 23.784 27.7561 23.784C29.1428 23.784 30.3908 23.528 31.5001 23.016C32.6308 22.504 33.5908 21.8 34.3801 20.904C35.1908 19.9867 35.8094 18.92 36.2361 17.704C36.6841 16.4667 36.9081 15.1333 36.9081 13.704C36.9081 11.6773 36.5348 9.928 35.7881 8.456C35.0628 6.96267 33.9428 5.81067 32.4281 5C30.9134 4.168 28.9828 3.752 26.6361 3.752C25.8468 3.752 25.2921 3.912 24.9721 4.232C24.6734 4.552 24.5028 5 24.4601 5.576C24.4388 6.152 24.4281 6.824 24.4281 7.592V21.224ZM51.3759 25.512C50.0745 25.512 48.9012 25.192 47.8559 24.552C46.8105 23.8907 45.9785 22.952 45.3599 21.736C44.7625 20.52 44.4639 19.0907 44.4639 17.448C44.4639 15.6987 44.8159 14.152 45.5199 12.808C46.2239 11.464 47.1945 10.408 48.4319 9.64C49.6905 8.872 51.1092 8.488 52.6879 8.488C53.3919 8.488 54.0852 8.584 54.7679 8.776C55.4719 8.94667 56.0265 9.14933 56.4319 9.384V5C56.4319 4.65867 56.4319 4.33867 56.4319 4.04C56.4532 3.72 56.4852 3.34667 56.5279 2.92C56.1439 2.94133 55.7599 2.96267 55.3759 2.984C55.0132 3.00533 54.6399 3.02667 54.2559 3.048V1.704C55.1945 1.704 55.9199 1.66133 56.4319 1.576C56.9439 1.49066 57.3279 1.384 57.5839 1.256C57.8612 1.128 58.0745 0.989332 58.2239 0.839998H59.1519V21.608C59.1519 21.9493 59.1412 22.2907 59.1199 22.632C59.0985 22.9733 59.0665 23.3573 59.0239 23.784C59.4079 23.7627 59.7812 23.7413 60.1439 23.72C60.5279 23.6987 60.9119 23.6773 61.2959 23.656V25H56.7199C56.6559 24.68 56.6025 24.392 56.5599 24.136C56.5385 23.8587 56.5172 23.592 56.4959 23.336C55.8985 23.9973 55.1625 24.5307 54.2879 24.936C53.4132 25.32 52.4425 25.512 51.3759 25.512ZM52.5279 23.944C53.2319 23.944 53.9359 23.7413 54.6399 23.336C55.3652 22.9307 55.9625 22.4293 56.4319 21.832C56.4105 21.576 56.3999 21.3093 56.3999 21.032C56.3999 20.7333 56.3999 20.4133 56.3999 20.072L56.4319 10.856C55.9199 10.472 55.3545 10.1947 54.7359 10.024C54.1385 9.832 53.5199 9.736 52.8799 9.736C51.8132 9.736 50.8852 10.0453 50.0959 10.664C49.3065 11.2827 48.7092 12.1467 48.3039 13.256C47.8985 14.3653 47.7172 15.6667 47.7599 17.16C47.8025 18.4613 48.0052 19.624 48.3679 20.648C48.7519 21.672 49.2852 22.4827 49.9679 23.08C50.6719 23.656 51.5252 23.944 52.5279 23.944ZM73.1889 25.512C71.6955 25.512 70.3409 25.1707 69.1249 24.488C67.9089 23.784 66.9382 22.824 66.2129 21.608C65.5089 20.3707 65.1569 18.9627 65.1569 17.384C65.1569 15.6987 65.5089 14.184 66.2129 12.84C66.9169 11.496 67.8769 10.44 69.0929 9.672C70.3089 8.88267 71.6742 8.488 73.1889 8.488C74.6822 8.488 76.0369 8.85067 77.2529 9.576C78.4689 10.28 79.4395 11.24 80.1649 12.456C80.8902 13.672 81.2529 15.0587 81.2529 16.616C81.2529 18.2587 80.8902 19.7627 80.1649 21.128C79.4609 22.472 78.5009 23.5387 77.2849 24.328C76.0689 25.1173 74.7035 25.512 73.1889 25.512ZM73.4449 24.232C74.5755 24.232 75.4715 23.912 76.1329 23.272C76.7942 22.632 77.2635 21.8 77.5409 20.776C77.8395 19.752 77.9889 18.6747 77.9889 17.544C77.9889 16.584 77.8929 15.6453 77.7009 14.728C77.5302 13.7893 77.2529 12.9467 76.8689 12.2C76.4849 11.432 75.9835 10.824 75.3649 10.376C74.7675 9.928 74.0422 9.704 73.1889 9.704C72.0795 9.704 71.1729 10.024 70.4689 10.664C69.7649 11.304 69.2422 12.136 68.9009 13.16C68.5809 14.184 68.4209 15.2827 68.4209 16.456C68.4209 17.7787 68.6022 19.0373 68.9649 20.232C69.3275 21.4053 69.8822 22.3653 70.6289 23.112C71.3755 23.8587 72.3142 24.232 73.4449 24.232ZM93.3796 25.512C91.9503 25.512 90.6276 25.192 89.4116 24.552C88.2169 23.8907 87.2569 22.952 86.5316 21.736C85.8276 20.4987 85.4756 19.016 85.4756 17.288C85.4756 16.1787 85.6783 15.1013 86.0836 14.056C86.4889 13.0107 87.0543 12.072 87.7796 11.24C88.5263 10.3867 89.4116 9.71467 90.4356 9.224C91.4596 8.73333 92.5903 8.488 93.8276 8.488C95.0223 8.488 96.0569 8.66933 96.9316 9.032C97.8276 9.39467 98.5209 9.87467 99.0116 10.472C99.5023 11.0693 99.7476 11.72 99.7476 12.424C99.7476 12.8933 99.6196 13.2987 99.3636 13.64C99.1076 13.96 98.7343 14.12 98.2436 14.12C97.7103 14.1413 97.3263 13.9813 97.0916 13.64C96.8783 13.2773 96.7716 12.9573 96.7716 12.68C96.7716 12.4667 96.8036 12.2533 96.8676 12.04C96.9316 11.8053 97.0596 11.592 97.2516 11.4C97.0809 10.888 96.7823 10.5147 96.3556 10.28C95.9289 10.024 95.4809 9.864 95.0116 9.8C94.5636 9.71467 94.1903 9.672 93.8916 9.672C92.4409 9.672 91.2143 10.2587 90.2116 11.432C89.2303 12.584 88.7396 14.2693 88.7396 16.488C88.7396 17.9173 88.9636 19.1867 89.4116 20.296C89.8809 21.4053 90.5316 22.28 91.3636 22.92C92.1956 23.5387 93.1556 23.848 94.2436 23.848C95.2463 23.848 96.2063 23.5813 97.1236 23.048C98.0409 22.5147 98.7556 21.864 99.2676 21.096L100.1 21.736C99.5449 22.632 98.8729 23.3573 98.0836 23.912C97.3156 24.4667 96.5156 24.872 95.6836 25.128C94.8729 25.384 94.1049 25.512 93.3796 25.512ZM110.955 25.512C109.803 25.512 108.832 25.2987 108.043 24.872C107.275 24.4453 106.688 23.72 106.283 22.696C105.899 21.672 105.707 20.2853 105.707 18.536V12.84C105.707 12.4987 105.707 12.1573 105.707 11.816C105.728 11.4747 105.771 11.1227 105.835 10.76C105.472 10.7813 105.099 10.8027 104.715 10.824C104.352 10.824 103.99 10.8347 103.627 10.856V9.544H104.619C105.536 9.544 106.198 9.45867 106.603 9.288C107.03 9.096 107.36 8.89333 107.595 8.68H108.523V18.44C108.523 20.2747 108.779 21.6507 109.291 22.568C109.824 23.464 110.72 23.9013 111.979 23.88C112.79 23.8587 113.558 23.6133 114.283 23.144C115.03 22.6533 115.627 22.0773 116.075 21.416V13.192C116.075 12.68 116.086 12.2427 116.107 11.88C116.128 11.496 116.171 11.1227 116.235 10.76C115.851 10.7813 115.467 10.8027 115.083 10.824C114.699 10.824 114.315 10.8347 113.931 10.856V9.544H114.923C115.84 9.544 116.502 9.45867 116.907 9.288C117.334 9.096 117.664 8.89333 117.899 8.68H118.827L118.795 20.776C118.795 21.1173 118.784 21.5973 118.763 22.216C118.742 22.8347 118.71 23.3573 118.667 23.784C119.051 23.7627 119.435 23.7413 119.819 23.72C120.203 23.6987 120.587 23.6773 120.971 23.656V25H116.395C116.331 24.6373 116.278 24.296 116.235 23.976C116.214 23.656 116.192 23.3573 116.171 23.08C115.51 23.7413 114.71 24.3173 113.771 24.808C112.832 25.2773 111.894 25.512 110.955 25.512Z" fill="white"/>
</svg>
